<mxfile host="app.diagrams.net" agent="Mozilla/5.0 (Macintosh; Intel Mac OS X 10_15_7) AppleWebKit/537.36 (KHTML, like Gecko) Chrome/131.0.0.0 Safari/537.36" version="26.0.5">
  <diagram name="第 1 页" id="MD43eZTOFzxbqqZqyeUR">
    <mxGraphModel dx="1242" dy="758" grid="1" gridSize="10" guides="1" tooltips="1" connect="1" arrows="1" fold="1" page="1" pageScale="1" pageWidth="827" pageHeight="1169" math="0" shadow="0">
      <root>
        <mxCell id="0" />
        <mxCell id="1" parent="0" />
        <mxCell id="1PO3ZFqx-MkKVhg-jlvu-32" value="" style="shape=note;whiteSpace=wrap;html=1;backgroundOutline=1;darkOpacity=0.05;strokeWidth=2;" vertex="1" parent="1">
          <mxGeometry x="250" y="270" width="80" height="100" as="geometry" />
        </mxCell>
        <mxCell id="1PO3ZFqx-MkKVhg-jlvu-33" value="" style="shape=note;whiteSpace=wrap;html=1;backgroundOutline=1;darkOpacity=0.05;strokeWidth=2;dashed=1;" vertex="1" parent="1">
          <mxGeometry x="250" y="440" width="80" height="100" as="geometry" />
        </mxCell>
        <mxCell id="1PO3ZFqx-MkKVhg-jlvu-35" value="" style="rounded=0;whiteSpace=wrap;html=1;strokeWidth=2;fillColor=#d5e8d4;strokeColor=#82b366;" vertex="1" parent="1">
          <mxGeometry x="270" y="310" width="30" height="10" as="geometry" />
        </mxCell>
        <mxCell id="1PO3ZFqx-MkKVhg-jlvu-37" value="" style="shape=note;whiteSpace=wrap;html=1;backgroundOutline=1;darkOpacity=0.05;strokeWidth=2;" vertex="1" parent="1">
          <mxGeometry x="360" y="270" width="80" height="100" as="geometry" />
        </mxCell>
        <mxCell id="1PO3ZFqx-MkKVhg-jlvu-38" value="" style="shape=note;whiteSpace=wrap;html=1;backgroundOutline=1;darkOpacity=0.05;strokeWidth=2;" vertex="1" parent="1">
          <mxGeometry x="360" y="390" width="80" height="100" as="geometry" />
        </mxCell>
        <mxCell id="1PO3ZFqx-MkKVhg-jlvu-39" value="" style="shape=note;whiteSpace=wrap;html=1;backgroundOutline=1;darkOpacity=0.05;strokeWidth=2;" vertex="1" parent="1">
          <mxGeometry x="360" y="510" width="80" height="100" as="geometry" />
        </mxCell>
        <mxCell id="1PO3ZFqx-MkKVhg-jlvu-44" style="edgeStyle=orthogonalEdgeStyle;rounded=0;orthogonalLoop=1;jettySize=auto;html=1;entryX=1;entryY=0.75;entryDx=0;entryDy=0;curved=1;strokeWidth=2;fillColor=#d5e8d4;strokeColor=#82b366;" edge="1" parent="1" source="1PO3ZFqx-MkKVhg-jlvu-45" target="1PO3ZFqx-MkKVhg-jlvu-35">
          <mxGeometry relative="1" as="geometry" />
        </mxCell>
        <mxCell id="1PO3ZFqx-MkKVhg-jlvu-50" style="edgeStyle=orthogonalEdgeStyle;rounded=0;orthogonalLoop=1;jettySize=auto;html=1;entryX=1;entryY=0.25;entryDx=0;entryDy=0;curved=1;strokeWidth=2;fillColor=#d5e8d4;strokeColor=#82b366;" edge="1" parent="1" source="1PO3ZFqx-MkKVhg-jlvu-45" target="1PO3ZFqx-MkKVhg-jlvu-49">
          <mxGeometry relative="1" as="geometry" />
        </mxCell>
        <mxCell id="1PO3ZFqx-MkKVhg-jlvu-45" value="" style="ellipse;whiteSpace=wrap;html=1;aspect=fixed;strokeWidth=2;fillColor=#d5e8d4;strokeColor=#82b366;" vertex="1" parent="1">
          <mxGeometry x="390" y="340" width="10" height="10" as="geometry" />
        </mxCell>
        <mxCell id="1PO3ZFqx-MkKVhg-jlvu-47" value="" style="endArrow=classic;html=1;rounded=0;strokeWidth=2;fillColor=#dae8fc;strokeColor=#6c8ebf;" edge="1" parent="1">
          <mxGeometry width="50" height="50" relative="1" as="geometry">
            <mxPoint x="220" y="390" as="sourcePoint" />
            <mxPoint x="220" y="490" as="targetPoint" />
          </mxGeometry>
        </mxCell>
        <mxCell id="1PO3ZFqx-MkKVhg-jlvu-48" value="向下滚动" style="edgeLabel;html=1;align=center;verticalAlign=middle;resizable=0;points=[];fontColor=light-dark(#6c8ebf, #ededed);" vertex="1" connectable="0" parent="1PO3ZFqx-MkKVhg-jlvu-47">
          <mxGeometry x="-0.28" y="1" relative="1" as="geometry">
            <mxPoint as="offset" />
          </mxGeometry>
        </mxCell>
        <mxCell id="1PO3ZFqx-MkKVhg-jlvu-49" value="" style="rounded=0;whiteSpace=wrap;html=1;strokeWidth=2;fillColor=#d5e8d4;strokeColor=#82b366;" vertex="1" parent="1">
          <mxGeometry x="260" y="450" width="30" height="10" as="geometry" />
        </mxCell>
      </root>
    </mxGraphModel>
  </diagram>
</mxfile>
